<svg fill="black"  xmlns="http://www.w3.org/2000/svg" height="1em" viewBox="0 0 640 512"><path d="M0 248.4c0-22.9 5.8-45.5 16.8-65.5c22.1-40.2 44.3-80.5 66.4-120.7C104.3 23.8 144.6 0 188.4 0c0 0 .1 0 .1 0s.1 0 .1 0s.1 0 .1 0s.1 0 .1 0s.1 0 .1 0s.1 0 .1 0s.1 0 .1 0s.1 0 .1 0s.1 0 .1 0s.1 0 .1 0s.1 0 .1 0s.1 0 .1 0s.1 0 .1 0s.1 0 .1 0s.1 0 .1 0s.1 0 .1 0s.1 0 .1 0s.1 0 .1 0s.1 0 .1 0s.1 0 .1 0s.1 0 .1 0s.1 0 .1 0s.1 0 .1 0s.1 0 .1 0s.1 0 .1 0s.1 0 .1 0s.1 0 .1 0s.1 0 .1 0s.1 0 .1 0s.1 0 .1 0s.1 0 .1 0s.1 0 .1 0s.1 0 .1 0s.1 0 .1 0s.1 0 .1 0s.1 0 .1 0s.1 0 .1 0s.1 0 .1 0s.1 0 .1 0s.1 0 .1 0s.1 0 .1 0s.1 0 .1 0s.1 0 .1 0s.1 0 .1 0s.1 0 .1 0s.1 0 .1 0s.1 0 .1 0s.1 0 .1 0s.1 0 .1 0s.1 0 .1 0s.1 0 .1 0s.1 0 .1 0s.1 0 .1 0s.1 0 .1 0s.1 0 .1 0s.1 0 .1 0s.1 0 .1 0s.1 0 .1 0s.1 0 .1 0s.1 0 .1 0s.1 0 .1 0s.1 0 .1 0s.1 0 .1 0s.1 0 .1 0s.1 0 .1 0s.1 0 .1 0s.1 0 .1 0s.1 0 .1 0s.1 0 .1 0s.1 0 .1 0s.1 0 .1 0s.1 0 .1 0s.1 0 .1 0s.1 0 .1 0s.1 0 .1 0s.1 0 .1 0s.1 0 .1 0s.1 0 .1 0s.1 0 .1 0s.1 0 .1 0s.1 0 .1 0s.1 0 .1 0s.1 0 .1 0s.1 0 .1 0s.1 0 .1 0s.1 0 .1 0s.1 0 .1 0s.1 0 .1 0s.1 0 .1 0s.1 0 .1 0s.1 0 .1 0s.1 0 .1 0s.1 0 .1 0s.1 0 .1 0s.1 0 .1 0s.1 0 .1 0s.1 0 .1 0s.1 0 .1 0s.1 0 .1 0s.1 0 .1 0s.1 0 .1 0s.1 0 .1 0s.1 0 .1 0s.1 0 .1 0s.1 0 .1 0s.1 0 .1 0s.1 0 .1 0s.1 0 .1 0s.1 0 .1 0s.1 0 .1 0s.1 0 .1 0s.1 0 .1 0s.1 0 .1 0s.1 0 .1 0s.1 0 .1 0s.1 0 .1 0s.1 0 .1 0s.1 0 .1 0s.1 0 .1 0s.1 0 .1 0s.1 0 .1 0s.1 0 .1 0s.1 0 .1 0s.1 0 .1 0s.1 0 .1 0s.1 0 .1 0s.1 0 .1 0s.1 0 .1 0s.1 0 .1 0s.1 0 .1 0s.1 0 .1 0s.1 0 .1 0s.1 0 .1 0s.1 0 .1 0s.1 0 .1 0s.1 0 .1 0s.1 0 .1 0s.1 0 .1 0s.1 0 .1 0s.1 0 .1 0s.1 0 .1 0s.1 0 .1 0s.1 0 .1 0s.1 0 .1 0s.1 0 .1 0s.1 0 .1 0s.1 0 .1 0s.1 0 .1 0s.1 0 .1 0s.1 0 .1 0s.1 0 .1 0s.1 0 .1 0s.1 0 .1 0s.1 0 .1 0s.1 0 .1 0s.1 0 .1 0s.1 0 .1 0s.1 0 .1 0s.1 0 .1 0s.1 0 .1 0s.1 0 .1 0s.1 0 .1 0s.1 0 .1 0s.1 0 .1 0s.1 0 .1 0s.1 0 .1 0s.1 0 .1 0s.1 0 .1 0s.1 0 .1 0s.1 0 .1 0s.1 0 .1 0s.1 0 .1 0s.1 0 .1 0s.1 0 .1 0s.1 0 .1 0s.1 0 .1 0s.1 0 .1 0s.1 0 .1 0s.1 0 .1 0s.1 0 .1 0s.1 0 .1 0s.1 0 .1 0s.1 0 .1 0s.1 0 .1 0s.1 0 .1 0s.1 0 .1 0s.1 0 .1 0s.1 0 .1 0s.1 0 .1 0s.1 0 .1 0s.1 0 .1 0s.1 0 .1 0s.1 0 .1 0s.1 0 .1 0s.1 0 .1 0s.1 0 .1 0s.1 0 .1 0s.1 0 .1 0s.1 0 .1 0s.1 0 .1 0s.1 0 .1 0s.1 0 .1 0s.1 0 .1 0s.1 0 .1 0s.1 0 .1 0s.1 0 .1 0s.1 0 .1 0s.1 0 .1 0s.1 0 .1 0s.1 0 .1 0s.1 0 .1 0s.1 0 .1 0s.1 0 .1 0s.1 0 .1 0s.1 0 .1 0s.1 0 .1 0s.1 0 .1 0s.1 0 .1 0s.1 0 .1 0s.1 0 .1 0s.1 0 .1 0s.1 0 .1 0s.1 0 .1 0s.1 0 .1 0s.1 0 .1 0s.1 0 .1 0s.1 0 .1 0s.1 0 .1 0s.1 0 .1 0s.1 0 .1 0s.1 0 .1 0s.1 0 .1 0s.1 0 .1 0s.1 0 .1 0s.1 0 .1 0s.1 0 .1 0s.1 0 .1 0s.1 0 .1 0s.1 0 .1 0s.1 0 .1 0s.1 0 .1 0s.1 0 .1 0s.1 0 .1 0s.1 0 .1 0s.1 0 .1 0s.1 0 .1 0s.1 0 .1 0s.1 0 .1 0s.1 0 .1 0s.1 0 .1 0s.1 0 .1 0s.1 0 .1 0s.1 0 .1 0s.1 0 .1 0s.1 0 .1 0s.1 0 .1 0s.1 0 .1 0s.1 0 .1 0s.1 0 .1 0s.1 0 .1 0s.1 0 .1 0s.1 0 .1 0s.1 0 .1 0s.1 0 .1 0s.1 0 .1 0s.1 0 .1 0s.1 0 .1 0s.1 0 .1 0s.1 0 .1 0s.1 0 .1 0s.1 0 .1 0s.1 0 .1 0s.1 0 .1 0s.1 0 .1 0s.1 0 .1 0s.1 0 .1 0s.1 0 .1 0s.1 0 .1 0s.1 0 .1 0s.1 0 .1 0s.1 0 .1 0s.1 0 .1 0s.1 0 .1 0s.1 0 .1 0s.1 0 .1 0s.1 0 .1 0s.1 0 .1 0s.1 0 .1 0s.1 0 .1 0s.1 0 .1 0s.1 0 .1 0s.1 0 .1 0s.1 0 .1 0s.1 0 .1 0s.1 0 .1 0s.1 0 .1 0s.1 0 .1 0s.1 0 .1 0s.1 0 .1 0s.1 0 .1 0s.1 0 .1 0s.1 0 .1 0s.1 0 .1 0s.1 0 .1 0s.1 0 .1 0s.1 0 .1 0s.1 0 .1 0s.1 0 .1 0s.1 0 .1 0s.1 0 .1 0s.1 0 .1 0s.1 0 .1 0s.1 0 .1 0s.1 0 .1 0s.1 0 .1 0s.1 0 .1 0s.1 0 .1 0s.1 0 .1 0s.1 0 .1 0s.1 0 .1 0s.1 0 .1 0s.1 0 .1 0s.1 0 .1 0s.1 0 .1 0s.1 0 .1 0s.1 0 .1 0s.1 0 .1 0s.1 0 .1 0s.1 0 .1 0s.1 0 .1 0s.1 0 .1 0s.1 0 .1 0s.1 0 .1 0s.1 0 .1 0s.1 0 .1 0s.1 0 .1 0s.1 0 .1 0s.1 0 .1 0s.1 0 .1 0s.1 0 .1 0s.1 0 .1 0s.1 0 .1 0s.1 0 .1 0s.1 0 .1 0s.1 0 .1 0s.1 0 .1 0s.1 0 .1 0s.1 0 .1 0s.1 0 .1 0s.1 0 .1 0s.1 0 .1 0s.1 0 .1 0s.1 0 .1 0s.1 0 .1 0s.1 0 .1 0s.1 0 .1 0s.1 0 .1 0s.1 0 .1 0s.1 0 .1 0s.1 0 .1 0s.1 0 .1 0s.1 0 .1 0s.1 0 .1 0s.1 0 .1 0s.1 0 .1 0s.1 0 .1 0s.1 0 .1 0s.1 0 .1 0s.1 0 .1 0s.1 0 .1 0s.1 0 .1 0s.1 0 .1 0s.1 0 .1 0s.1 0 .1 0s.1 0 .1 0s.1 0 .1 0s.1 0 .1 0s.1 0 .1 0s.1 0 .1 0s.1 0 .1 0s.1 0 .1 0s.1 0 .1 0s.1 0 .1 0s.1 0 .1 0s.1 0 .1 0s.1 0 .1 0s.1 0 .1 0s.1 0 .1 0s.1 0 .1 0s.1 0 .1 0s.1 0 .1 0s.1 0 .1 0s.1 0 .1 0s.1 0 .1 0s.1 0 .1 0s.1 0 .1 0s.1 0 .1 0s.1 0 .1 0s.1 0 .1 0s.1 0 .1 0s.1 0 .1 0s.1 0 .1 0s.1 0 .1 0s.1 0 .1 0s.1 0 .1 0s.1 0 .1 0s.1 0 .1 0s.1 0 .1 0s.1 0 .1 0s.1 0 .1 0s.1 0 .1 0s.1 0 .1 0s.1 0 .1 0s.1 0 .1 0s.1 0 .1 0s.1 0 .1 0s.1 0 .1 0s.1 0 .1 0s.1 0 .1 0s.1 0 .1 0s.1 0 .1 0s.1 0 .1 0s.1 0 .1 0s.1 0 .1 0s.1 0 .1 0s.1 0 .1 0s.1 0 .1 0s.1 0 .1 0s.1 0 .1 0s.1 0 .1 0s.1 0 .1 0s.1 0 .1 0s.1 0 .1 0s.1 0 .1 0s.1 0 .1 0s.1 0 .1 0s.1 0 .1 0s.1 0 .1 0s.1 0 .1 0s.1 0 .1 0s.1 0 .1 0s.1 0 .1 0s.1 0 .1 0s.1 0 .1 0s.1 0 .1 0s.1 0 .1 0s.1 0 .1 0s.1 0 .1 0s.1 0 .1 0s.1 0 .1 0s.1 0 .1 0s.1 0 .1 0s.1 0 .1 0s.1 0 .1 0s.1 0 .1 0s.1 0 .1 0s.1 0 .1 0s.1 0 .1 0s.1 0 .1 0s.1 0 .1 0s.1 0 .1 0s.1 0 .1 0s.1 0 .1 0s.1 0 .1 0s.1 0 .1 0s.1 0 .1 0s.1 0 .1 0s.1 0 .1 0s.1 0 .1 0s.1 0 .1 0s.1 0 .1 0s.1 0 .1 0s.1 0 .1 0s.1 0 .1 0s.1 0 .1 0s.1 0 .1 0s.1 0 .1 0s.1 0 .1 0s.1 0 .1 0s.1 0 .1 0s.1 0 .1 0s.1 0 .1 0s.1 0 .1 0s.1 0 .1 0s.1 0 .1 0s.1 0 .1 0s.1 0 .1 0s.1 0 .1 0s.1 0 .1 0s.1 0 .1 0s.1 0 .1 0s.1 0 .1 0s.1 0 .1 0s.1 0 .1 0s.1 0 .1 0s.1 0 .1 0s.1 0 .1 0s.1 0 .1 0s.1 0 .1 0s.1 0 .1 0s.1 0 .1 0s.1 0 .1 0s.1 0 .1 0s.1 0 .1 0s.1 0 .1 0s.1 0 .1 0s.1 0 .1 0s.1 0 .1 0s.1 0 .1 0s.1 0 .1 0s.1 0 .1 0s.1 0 .1 0c9 0 17.2 5 21.3 13c19.7 38 39.4 76.1 59.1 114.1C339.6 89.1 359.1 51 378.7 13C382.8 5 391 0 400 0c0 0 .1 0 .1 0s.1 0 .1 0s.1 0 .1 0s.1 0 .1 0s.1 0 .1 0s.1 0 .1 0s.1 0 .1 0s.1 0 .1 0s.1 0 .1 0s.1 0 .1 0s.1 0 .1 0s.1 0 .1 0s.1 0 .1 0s.1 0 .1 0s.1 0 .1 0s.1 0 .1 0s.1 0 .1 0s.1 0 .1 0s.1 0 .1 0s.1 0 .1 0s.1 0 .1 0s.1 0 .1 0s.1 0 .1 0s.1 0 .1 0s.1 0 .1 0s.1 0 .1 0s.1 0 .1 0s.1 0 .1 0s.1 0 .1 0s.1 0 .1 0s.1 0 .1 0s.1 0 .1 0s.1 0 .1 0s.1 0 .1 0s.1 0 .1 0s.1 0 .1 0s.1 0 .1 0s.1 0 .1 0s.1 0 .1 0s.1 0 .1 0s.1 0 .1 0s.1 0 .1 0s.1 0 .1 0s.1 0 .1 0s.1 0 .1 0s.1 0 .1 0s.1 0 .1 0s.1 0 .1 0s.1 0 .1 0s.1 0 .1 0s.1 0 .1 0s.1 0 .1 0s.1 0 .1 0s.1 0 .1 0s.1 0 .1 0s.1 0 .1 0s.1 0 .1 0s.1 0 .1 0s.1 0 .1 0s.1 0 .1 0s.1 0 .1 0s.1 0 .1 0s.1 0 .1 0s.1 0 .1 0s.1 0 .1 0s.1 0 .1 0s.1 0 .1 0s.1 0 .1 0s.1 0 .1 0s.1 0 .1 0s.1 0 .1 0s.1 0 .1 0s.1 0 .1 0s.1 0 .1 0s.1 0 .1 0s.1 0 .1 0s.1 0 .1 0s.1 0 .1 0s.1 0 .1 0s.1 0 .1 0s.1 0 .1 0s.1 0 .1 0s.1 0 .1 0s.1 0 .1 0s.1 0 .1 0s.1 0 .1 0s.1 0 .1 0s.1 0 .1 0s.1 0 .1 0s.1 0 .1 0s.1 0 .1 0s.1 0 .1 0s.1 0 .1 0s.1 0 .1 0s.1 0 .1 0s.1 0 .1 0s.1 0 .1 0s.1 0 .1 0s.1 0 .1 0s.1 0 .1 0s.1 0 .1 0s.1 0 .1 0s.1 0 .1 0s.1 0 .1 0s.1 0 .1 0s.1 0 .1 0s.1 0 .1 0s.1 0 .1 0s.1 0 .1 0s.1 0 .1 0s.1 0 .1 0s.1 0 .1 0s.1 0 .1 0s.1 0 .1 0s.1 0 .1 0s.1 0 .1 0s.1 0 .1 0s.1 0 .1 0s.1 0 .1 0s.1 0 .1 0s.1 0 .1 0s.1 0 .1 0s.1 0 .1 0s.1 0 .1 0s.1 0 .1 0s.1 0 .1 0s.1 0 .1 0s.1 0 .1 0s.1 0 .1 0s.1 0 .1 0s.1 0 .1 0s.1 0 .1 0s.1 0 .1 0s.1 0 .1 0s.1 0 .1 0s.1 0 .1 0s.1 0 .1 0s.1 0 .1 0s.1 0 .1 0s.1 0 .1 0s.1 0 .1 0s.1 0 .1 0s.1 0 .1 0s.1 0 .1 0s.1 0 .1 0s.1 0 .1 0s.1 0 .1 0s.1 0 .1 0s.1 0 .1 0s.1 0 .1 0s.1 0 .1 0s.1 0 .1 0s.1 0 .1 0s.1 0 .1 0s.1 0 .1 0s.1 0 .1 0s.1 0 .1 0s.1 0 .1 0s.1 0 .1 0s.1 0 .1 0s.1 0 .1 0s.1 0 .1 0s.1 0 .1 0s.1 0 .1 0s.1 0 .1 0s.1 0 .1 0s.1 0 .1 0s.1 0 .1 0s.1 0 .1 0s.1 0 .1 0s.1 0 .1 0s.1 0 .1 0s.1 0 .1 0s.1 0 .1 0s.1 0 .1 0s.1 0 .1 0s.1 0 .1 0s.1 0 .1 0s.1 0 .1 0s.1 0 .1 0s.1 0 .1 0s.1 0 .1 0s.1 0 .1 0s.1 0 .1 0s.1 0 .1 0s.1 0 .1 0s.1 0 .1 0s.1 0 .1 0s.1 0 .1 0s.1 0 .1 0s.1 0 .1 0s.1 0 .1 0s.1 0 .1 0s.1 0 .1 0s.1 0 .1 0s.1 0 .1 0s.1 0 .1 0s.1 0 .1 0s.1 0 .1 0s.1 0 .1 0s.1 0 .1 0s.1 0 .1 0s.1 0 .1 0s.1 0 .1 0s.1 0 .1 0s.1 0 .1 0s.1 0 .1 0s.1 0 .1 0s.1 0 .1 0s.1 0 .1 0s.1 0 .1 0s.1 0 .1 0s.1 0 .1 0s.1 0 .1 0s.1 0 .1 0s.1 0 .1 0s.1 0 .1 0s.1 0 .1 0s.1 0 .1 0s.1 0 .1 0s.1 0 .1 0s.1 0 .1 0s.1 0 .1 0s.1 0 .1 0s.1 0 .1 0s.1 0 .1 0s.1 0 .1 0s.1 0 .1 0s.1 0 .1 0s.1 0 .1 0s.1 0 .1 0s.1 0 .1 0s.1 0 .1 0s.1 0 .1 0s.1 0 .1 0s.1 0 .1 0s.1 0 .1 0s.1 0 .1 0s.1 0 .1 0s.1 0 .1 0s.1 0 .1 0s.1 0 .1 0s.1 0 .1 0s.1 0 .1 0s.1 0 .1 0s.1 0 .1 0s.1 0 .1 0s.1 0 .1 0s.1 0 .1 0s.1 0 .1 0s.1 0 .1 0s.1 0 .1 0s.1 0 .1 0s.1 0 .1 0s.1 0 .1 0s.1 0 .1 0s.1 0 .1 0s.1 0 .1 0s.1 0 .1 0s.1 0 .1 0s.1 0 .1 0s.1 0 .1 0s.1 0 .1 0s.1 0 .1 0s.1 0 .1 0s.1 0 .1 0s.1 0 .1 0s.1 0 .1 0s.1 0 .1 0s.1 0 .1 0s.1 0 .1 0s.1 0 .1 0s.1 0 .1 0s.1 0 .1 0s.1 0 .1 0s.1 0 .1 0s.1 0 .1 0s.1 0 .1 0s.1 0 .1 0s.1 0 .1 0s.1 0 .1 0s.1 0 .1 0s.1 0 .1 0s.1 0 .1 0s.1 0 .1 0s.1 0 .1 0s.1 0 .1 0s.1 0 .1 0s.1 0 .1 0s.1 0 .1 0s.1 0 .1 0s.1 0 .1 0s.1 0 .1 0s.1 0 .1 0s.1 0 .1 0s.1 0 .1 0s.1 0 .1 0s.1 0 .1 0s.1 0 .1 0s.1 0 .1 0s.1 0 .1 0s.1 0 .1 0s.1 0 .1 0s.1 0 .1 0s.1 0 .1 0s.1 0 .1 0s.1 0 .1 0s.1 0 .1 0s.1 0 .1 0s.1 0 .1 0s.1 0 .1 0s.1 0 .1 0s.1 0 .1 0s.1 0 .1 0s.1 0 .1 0s.1 0 .1 0s.1 0 .1 0s.1 0 .1 0s.1 0 .1 0s.1 0 .1 0s.1 0 .1 0s.1 0 .1 0s.1 0 .1 0s.1 0 .1 0s.1 0 .1 0s.1 0 .1 0s.1 0 .1 0s.1 0 .1 0s.1 0 .1 0s.1 0 .1 0s.1 0 .1 0s.1 0 .1 0s.1 0 .1 0s.1 0 .1 0s.1 0 .1 0s.1 0 .1 0s.1 0 .1 0s.1 0 .1 0s.1 0 .1 0s.1 0 .1 0s.1 0 .1 0s.1 0 .1 0s.1 0 .1 0s.1 0 .1 0s.1 0 .1 0s.1 0 .1 0s.1 0 .1 0s.1 0 .1 0s.1 0 .1 0s.1 0 .1 0s.1 0 .1 0s.1 0 .1 0s.1 0 .1 0s.1 0 .1 0s.1 0 .1 0s.1 0 .1 0s.1 0 .1 0s.1 0 .1 0s.1 0 .1 0s.1 0 .1 0s.1 0 .1 0s.1 0 .1 0s.1 0 .1 0s.1 0 .1 0s.1 0 .1 0s.1 0 .1 0s.1 0 .1 0s.1 0 .1 0s.1 0 .1 0s.1 0 .1 0s.1 0 .1 0s.1 0 .1 0s.1 0 .1 0s.1 0 .1 0s.1 0 .1 0s.1 0 .1 0s.1 0 .1 0s.1 0 .1 0s.1 0 .1 0s.1 0 .1 0s.1 0 .1 0s.1 0 .1 0s.1 0 .1 0s.1 0 .1 0s.1 0 .1 0s.1 0 .1 0s.1 0 .1 0s.1 0 .1 0s.1 0 .1 0s.1 0 .1 0s.1 0 .1 0s.1 0 .1 0s.1 0 .1 0s.1 0 .1 0s.1 0 .1 0s.1 0 .1 0s.1 0 .1 0s.1 0 .1 0s.1 0 .1 0s.1 0 .1 0s.1 0 .1 0s.1 0 .1 0s.1 0 .1 0s.1 0 .1 0s.1 0 .1 0s.1 0 .1 0s.1 0 .1 0s.1 0 .1 0s.1 0 .1 0s.1 0 .1 0s.1 0 .1 0s.1 0 .1 0s.1 0 .1 0s.1 0 .1 0s.1 0 .1 0s.1 0 .1 0s.1 0 .1 0s.1 0 .1 0s.1 0 .1 0s.1 0 .1 0s.1 0 .1 0s.1 0 .1 0s.1 0 .1 0s.1 0 .1 0s.1 0 .1 0s.1 0 .1 0s.1 0 .1 0s.1 0 .1 0s.1 0 .1 0s.1 0 .1 0s.1 0 .1 0s.1 0 .1 0s.1 0 .1 0s.1 0 .1 0s.1 0 .1 0s.1 0 .1 0s.1 0 .1 0s.1 0 .1 0s.1 0 .1 0s.1 0 .1 0s.1 0 .1 0s.1 0 .1 0s.1 0 .1 0s.1 0 .1 0s.1 0 .1 0s.1 0 .1 0s.1 0 .1 0s.1 0 .1 0s.1 0 .1 0s.1 0 .1 0s.1 0 .1 0s.1 0 .1 0s.1 0 .1 0s.1 0 .1 0s.1 0 .1 0s.1 0 .1 0s.1 0 .1 0s.1 0 .1 0s.1 0 .1 0s.1 0 .1 0s.1 0 .1 0s.1 0 .1 0s.1 0 .1 0s.1 0 .1 0s.1 0 .1 0s.1 0 .1 0s.1 0 .1 0s.1 0 .1 0s.1 0 .1 0s.1 0 .1 0s.1 0 .1 0s.1 0 .1 0s.1 0 .1 0s.1 0 .1 0s.1 0 .1 0s.1 0 .1 0s.1 0 .1 0s.1 0 .1 0s.1 0 .1 0s.1 0 .1 0s.1 0 .1 0s.1 0 .1 0s.1 0 .1 0s.1 0 .1 0s.1 0 .1 0s.1 0 .1 0s.1 0 .1 0s.1 0 .1 0s.1 0 .1 0s.1 0 .1 0s.1 0 .1 0s.1 0 .1 0s.1 0 .1 0s.1 0 .1 0s.1 0 .1 0s.1 0 .1 0s.1 0 .1 0s.1 0 .1 0s.1 0 .1 0s.1 0 .1 0s.1 0 .1 0s.1 0 .1 0s.1 0 .1 0s.1 0 .1 0s.1 0 .1 0s.1 0 .1 0s.1 0 .1 0s.1 0 .1 0s.1 0 .1 0s.1 0 .1 0s.1 0 .1 0s.1 0 .1 0C495 0 535.3 23.8 556.3 62.2c22.1 40.2 44.3 80.5 66.4 120.7c11 20.1 16.8 42.6 16.8 65.5c0 5.9 0 11.8 0 17.7c-14.2-19.9-32.3-36.7-53.3-49.2c-1.4-3.7-3.1-7.3-5.1-10.9c-22.1-40.2-44.3-80.5-66.4-120.7C502.1 62.3 477.9 48 451.6 48c0 0-.1 0-.1 0s-.1 0-.1 0s-.1 0-.1 0s-.1 0-.1 0s-.1 0-.1 0s-.1 0-.2 0s-.1 0-.1 0s-.1 0-.1 0s-.1 0-.1 0s-.1 0-.1 0s-.1 0-.1 0s-.1 0-.1 0s-.1 0-.1 0s-.1 0-.1 0s-.1 0-.2 0s-.1 0-.1 0s-.1 0-.1 0s-.1 0-.1 0s-.1 0-.1 0s-.1 0-.1 0s-.1 0-.1 0s-.1 0-.1 0s-.1 0-.2 0s-.1 0-.1 0s-.1 0-.1 0s-.1 0-.1 0s-.1 0-.1 0s-.1 0-.1 0s-.1 0-.1 0s-.1 0-.2 0s-.1 0-.1 0s-.1 0-.1 0s-.1 0-.1 0s-.1 0-.1 0s-.1 0-.1 0s-.1 0-.1 0s-.1 0-.2 0c0 0-.1 0-.1 0s-.1 0-.1 0s-.1 0-.1 0s-.1 0-.1 0s-.1 0-.1 0s-.1 0-.1 0s-.1 0-.1 0s-.1 0-.1 0s-.1 0-.2 0c0 0-.1 0-.1 0s-.1 0-.1 0s-.1 0-.1 0s-.1 0-.1 0s-.1 0-.1 0s-.1 0-.1 0s-.1 0-.1 0s-.1 0-.1 0s-.1 0-.2 0c0 0-.1 0-.1 0s-.1 0-.1 0s-.1 0-.1 0s-.1 0-.1 0s-.1 0-.1 0s-.1 0-.1 0s-.1 0-.1 0s-.1 0-.1 0s-.1 0-.2 0c0 0-.1 0-.1 0s-.1 0-.1 0s-.1 0-.1 0s-.1 0-.1 0s-.1 0-.1 0s-.1 0-.1 0s-.1 0-.1 0s-.1 0-.1 0s-.1 0-.2 0c0 0-.1 0-.1 0s-.1 0-.1 0s-.1 0-.1 0s-.1 0-.1 0s-.1 0-.1 0s-.1 0-.1 0s-.1 0-.1 0s-.1 0-.1 0s-.1 0-.2 0c0 0-.1 0-.1 0s-.1 0-.1 0s-.1 0-.1 0s-.1 0-.1 0s-.1 0-.1 0s-.1 0-.1 0s-.1 0-.1 0s-.1 0-.1 0c-.1 0-.1 0-.2 0c0 0-.1 0-.1 0s-.1 0-.1 0s-.1 0-.1 0s-.1 0-.1 0s-.1 0-.1 0s-.1 0-.1 0s-.1 0-.1 0s-.1 0-.1 0s-.1 0-.2 0c0 0-.1 0-.1 0s-.1 0-.1 0s-.1 0-.1 0s-.1 0-.1 0s-.1 0-.1 0s-.1 0-.1 0s-.1 0-.1 0s-.1 0-.1 0s-.1 0-.1 0s-.1 0-.1 0s-.1 0-.1 0s-.1 0-.1 0s-.1 0-.1 0s-.1 0-.1 0s-.1 0-.1 0s-.1 0-.1 0s-.1 0-.1 0s-.1 0-.1 0c-.1 0-.1 0-.2 0c0 0-.1 0-.1 0s-.1 0-.1 0s-.1 0-.1 0s-.1 0-.1 0s-.1 0-.1 0s-.1 0-.1 0s-.1 0-.1 0s-.1 0-.1 0c-.1 0-.1 0-.2 0c0 0-.1 0-.1 0s-.1 0-.1 0s-.1 0-.1 0s-.1 0-.1 0s-.1 0-.1 0s-.1 0-.1 0s-.1 0-.1 0s-.1 0-.1 0c-.1 0-.1 0-.2 0c0 0-.1 0-.1 0s-.1 0-.1 0s-.1 0-.1 0s-.1 0-.1 0s-.1 0-.1 0s-.1 0-.1 0s-.1 0-.1 0s-.1 0-.1 0c-.1 0-.1 0-.2 0c0 0-.1 0-.1 0s-.1 0-.1 0s-.1 0-.1 0s-.1 0-.1 0s-.1 0-.1 0s-.1 0-.1 0s-.1 0-.1 0s-.1 0-.1 0c-.1 0-.1 0-.2 0c0 0-.1 0-.1 0s-.1 0-.1 0s-.1 0-.1 0s-.1 0-.1 0s-.1 0-.1 0s-.1 0-.1 0s-.1 0-.1 0s-.1 0-.1 0c-.1 0-.1 0-.2 0c0 0-.1 0-.1 0s-.1 0-.1 0s-.1 0-.1 0s-.1 0-.1 0s-.1 0-.1 0s-.1 0-.1 0s-.1 0-.1 0s-.1 0-.1 0s-.1 0-.1 0s-.1 0-.1 0s-.1 0-.1 0s-.1 0-.1 0s-.1 0-.1 0s-.1 0-.1 0s-.1 0-.1 0s-.1 0-.1 0c-.1 0-.3 0-.4 0c0 0-.1 0-.1 0s-.1 0-.1 0s-.1 0-.1 0s-.1 0-.1 0s-.1 0-.1 0s-.1 0-.1 0s-.1 0-.1 0s-.1 0-.1 0c-.1 0-.1 0-.2 0c0 0-.1 0-.1 0s-.1 0-.1 0s-.1 0-.1 0s-.1 0-.1 0s-.1 0-.1 0s-.1 0-.1 0s-.1 0-.1 0s-.1 0-.1 0c-.1 0-.1 0-.2 0c0 0-.1 0-.1 0s-.1 0-.1 0s-.1 0-.1 0s-.1 0-.1 0s-.1 0-.1 0s-.1 0-.1 0s-.1 0-.1 0c-.1 0-.2 0-.3 0c0 0-.1 0-.1 0s-.1 0-.1 0s-.1 0-.1 0s-.1 0-.1 0s-.1 0-.1 0s-.1 0-.1 0s-.1 0-.1 0s-.1 0-.1 0c-.1 0-.1 0-.2 0c0 0-.1 0-.1 0s-.1 0-.1 0s-.1 0-.1 0s-.1 0-.1 0s-.1 0-.1 0s-.1 0-.1 0s-.1 0-.1 0c-.1 0-.2 0-.3 0c0 0-.1 0-.1 0s-.1 0-.1 0s-.1 0-.1 0s-.1 0-.1 0s-.1 0-.1 0s-.1 0-.1 0s-.1 0-.1 0s-.1 0-.1 0c-.1 0-.1 0-.2 0c0 0-.1 0-.1 0s-.1 0-.1 0s-.1 0-.1 0s-.1 0-.1 0s-.1 0-.1 0s-.1 0-.1 0s-.1 0-.1 0s-.1 0-.1 0s-.1 0-.1 0s-.1 0-.1 0s-.1 0-.1 0s-.1 0-.1 0s-.1 0-.1 0s-.1 0-.1 0s-.1 0-.1 0s-.1 0-.1 0c-.1 0-.3 0-.4 0c0 0-.1 0-.1 0s-.1 0-.1 0s-.1 0-.1 0s-.1 0-.1 0s-.1 0-.1 0s-.1 0-.1 0s-.1 0-.1 0s-.1 0-.1 0c-.1 0-.1 0-.2 0c0 0-.1 0-.1 0s-.1 0-.1 0s-.1 0-.1 0s-.1 0-.1 0s-.1 0-.1 0s-.1 0-.1 0s-.1 0-.1 0s-.1 0-.1 0s-.1 0-.1 0s-.1 0-.1 0s-.1 0-.1 0s-.1 0-.1 0s-.1 0-.1 0s-.1 0-.1 0s-.1 0-.1 0s-.1 0-.1 0c-.1 0-.3 0-.4 0c0 0-.1 0-.1 0s-.1 0-.1 0s-.1 0-.1 0s-.1 0-.1 0s-.1 0-.1 0s-.1 0-.1 0s-.1 0-.1 0s-.1 0-.1 0c-.1 0-.1 0-.2 0c0 0-.1 0-.1 0s-.1 0-.1 0s-.1 0-.1 0s-.1 0-.1 0s-.1 0-.1 0s-.1 0-.1 0s-.1 0-.1 0s-.1 0-.1 0c-.1 0-.1 0-.2 0c0 0-.1 0-.1 0s-.1 0-.1 0s-.1 0-.1 0s-.1 0-.1 0s-.1 0-.1 0s-.1 0-.1 0s-.1 0-.1 0s-.1 0-.1 0c-.1 0-.1 0-.2 0c0 0-.1 0-.1 0s-.1 0-.1 0s-.1 0-.1 0s-.1 0-.1 0s-.1 0-.1 0s-.1 0-.1 0s-.1 0-.1 0s-.1 0-.1 0s-.1 0-.1 0s-.1 0-.1 0s-.1 0-.1 0s-.1 0-.1 0s-.1 0-.1 0s-.1 0-.1 0s-.1 0-.1 0s-.1 0-.1 0s-.1 0-.1 0c-.1 0-.2 0-.3 0c0 0-.1 0-.1 0s-.1 0-.1 0s-.1 0-.1 0c-24.5 47.5-48.9 95-73.4 142.5c-16.7 32.5-33.4 65-50.1 97.5c-18 0-36 0-54 0c18.6-36.1 37.2-72.3 55.8-108.4C270.5 135.7 247.9 91.9 225.4 48c0 0-.1 0-.1 0s-.1 0-.1 0c-.1 0-.1 0-.2 0c0 0-.1 0-.1 0s-.1 0-.1 0s-.1 0-.1 0s-.1 0-.1 0s-.1 0-.1 0s-.1 0-.1 0s-.1 0-.1 0s-.1 0-.1 0s-.1 0-.1 0s-.1 0-.1 0s-.1 0-.1 0s-.1 0-.1 0s-.1 0-.1 0s-.1 0-.1 0s-.1 0-.1 0s-.1 0-.1 0s-.1 0-.1 0c-.1 0-.2 0-.3 0c0 0-.1 0-.1 0s-.1 0-.1 0s-.1 0-.1 0s-.1 0-.1 0s-.1 0-.1 0s-.1 0-.1 0s-.1 0-.1 0s-.1 0-.1 0c-.1 0-.1 0-.2 0c0 0-.1 0-.1 0s-.1 0-.1 0s-.1 0-.1 0s-.1 0-.1 0s-.1 0-.1 0s-.1 0-.1 0s-.1 0-.1 0s-.1 0-.1 0c-.1 0-.1 0-.2 0c0 0-.1 0-.1 0s-.1 0-.1 0s-.1 0-.1 0s-.1 0-.1 0s-.1 0-.1 0s-.1 0-.1 0s-.1 0-.1 0s-.1 0-.1 0c-.1 0-.1 0-.2 0c0 0-.1 0-.1 0s-.1 0-.1 0s-.1 0-.1 0s-.1 0-.1 0s-.1 0-.1 0s-.1 0-.1 0s-.1 0-.1 0s-.1 0-.1 0s-.1 0-.1 0s-.1 0-.1 0s-.1 0-.1 0s-.1 0-.1 0s-.1 0-.1 0s-.1 0-.1 0s-.1 0-.1 0s-.1 0-.1 0c-.1 0-.3 0-.4 0c0 0-.1 0-.1 0s-.1 0-.1 0s-.1 0-.1 0s-.1 0-.1 0s-.1 0-.1 0s-.1 0-.1 0s-.1 0-.1 0s-.1 0-.1 0c-.1 0-.1 0-.2 0c0 0-.1 0-.1 0s-.1 0-.1 0s-.1 0-.1 0s-.1 0-.1 0s-.1 0-.1 0s-.1 0-.1 0s-.1 0-.1 0s-.1 0-.1 0s-.1 0-.1 0s-.1 0-.1 0s-.1 0-.1 0s-.1 0-.1 0s-.1 0-.1 0s-.1 0-.1 0s-.1 0-.1 0s-.1 0-.1 0c-.1 0-.3 0-.4 0c0 0-.1 0-.1 0s-.1 0-.1 0s-.1 0-.1 0s-.1 0-.1 0s-.1 0-.1 0s-.1 0-.1 0s-.1 0-.1 0s-.1 0-.1 0c-.1 0-.1 0-.2 0c0 0-.1 0-.1 0s-.1 0-.1 0s-.1 0-.1 0s-.1 0-.1 0s-.1 0-.1 0s-.1 0-.1 0s-.1 0-.1 0c-.1 0-.2 0-.3 0c0 0-.1 0-.1 0s-.1 0-.1 0s-.1 0-.1 0s-.1 0-.1 0s-.1 0-.1 0s-.1 0-.1 0s-.1 0-.1 0s-.1 0-.1 0c-.1 0-.1 0-.2 0c0 0-.1 0-.1 0s-.1 0-.1 0s-.1 0-.1 0s-.1 0-.1 0s-.1 0-.1 0s-.1 0-.1 0s-.1 0-.1 0s-.1 0-.1 0s-.1 0-.1 0s-.1 0-.1 0s-.1 0-.1 0s-.1 0-.1 0s-.1 0-.1 0s-.1 0-.1 0s-.1 0-.1 0s-.1 0-.1 0c-.1 0-.3 0-.4 0c0 0-.1 0-.1 0s-.1 0-.1 0s-.1 0-.1 0s-.1 0-.1 0s-.1 0-.1 0s-.1 0-.1 0s-.1 0-.1 0s-.1 0-.1 0c-.1 0-.1 0-.2 0c0 0-.1 0-.1 0s-.1 0-.1 0s-.1 0-.1 0s-.1 0-.1 0s-.1 0-.1 0s-.1 0-.1 0s-.1 0-.1 0s-.1 0-.1 0s-.1 0-.1 0s-.1 0-.1 0s-.1 0-.1 0s-.1 0-.1 0s-.1 0-.1 0s-.1 0-.1 0s-.1 0-.1 0s-.1 0-.1 0c-.1 0-.3 0-.4 0c0 0-.1 0-.1 0s-.1 0-.1 0s-.1 0-.1 0s-.1 0-.1 0s-.1 0-.1 0s-.1 0-.1 0s-.1 0-.1 0s-.1 0-.1 0c-.1 0-.1 0-.2 0c0 0-.1 0-.1 0s-.1 0-.1 0s-.1 0-.1 0s-.1 0-.1 0s-.1 0-.1 0s-.1 0-.1 0s-.1 0-.1 0s-.1 0-.1 0c-.1 0-.1 0-.2 0c0 0-.1 0-.1 0s-.1 0-.1 0s-.1 0-.1 0s-.1 0-.1 0s-.1 0-.1 0s-.1 0-.1 0s-.1 0-.1 0s-.1 0-.1 0c-.1 0-.1 0-.2 0c0 0-.1 0-.1 0s-.1 0-.1 0s-.1 0-.1 0s-.1 0-.1 0s-.1 0-.1 0s-.1 0-.1 0s-.1 0-.1 0s-.1 0-.1 0c-.1 0-.1 0-.2 0c0 0-.1 0-.1 0s-.1 0-.1 0s-.1 0-.1 0s-.1 0-.1 0s-.1 0-.1 0s-.1 0-.1 0s-.1 0-.1 0s-.1 0-.1 0c-.1 0-.1 0-.2 0c0 0-.1 0-.1 0s-.1 0-.1 0s-.1 0-.1 0s-.1 0-.1 0s-.1 0-.1 0s-.1 0-.1 0s-.1 0-.1 0s-.1 0-.1 0s-.1 0-.1 0s-.1 0-.1 0s-.1 0-.1 0s-.1 0-.1 0s-.1 0-.1 0s-.1 0-.1 0s-.1 0-.1 0s-.1 0-.1 0s-.1 0-.1 0s-.1 0-.1 0c-.1 0-.1 0-.2 0c0 0-.1 0-.1 0s-.1 0-.1 0s-.1 0-.1 0s-.1 0-.1 0s-.1 0-.1 0s-.1 0-.1 0s-.1 0-.1 0s-.1 0-.1 0s-.1 0-.2 0c0 0-.1 0-.1 0s-.1 0-.1 0s-.1 0-.1 0s-.1 0-.1 0s-.1 0-.1 0s-.1 0-.1 0s-.1 0-.1 0s-.1 0-.1 0c-.1 0-.1 0-.2 0c0 0-.1 0-.1 0s-.1 0-.1 0s-.1 0-.1 0s-.1 0-.1 0s-.1 0-.1 0s-.1 0-.1 0s-.1 0-.1 0s-.1 0-.1 0s-.1 0-.2 0c0 0-.1 0-.1 0s-.1 0-.1 0s-.1 0-.1 0s-.1 0-.1 0s-.1 0-.1 0s-.1 0-.1 0s-.1 0-.1 0s-.1 0-.1 0s-.1 0-.2 0c0 0-.1 0-.1 0s-.1 0-.1 0s-.1 0-.1 0s-.1 0-.1 0s-.1 0-.1 0s-.1 0-.1 0s-.1 0-.1 0s-.1 0-.1 0s-.1 0-.2 0c0 0-.1 0-.1 0s-.1 0-.1 0s-.1 0-.1 0s-.1 0-.1 0s-.1 0-.1 0s-.1 0-.1 0s-.1 0-.1 0s-.1 0-.1 0s-.1 0-.2 0c0 0-.1 0-.1 0s-.1 0-.1 0s-.1 0-.1 0s-.1 0-.1 0s-.1 0-.1 0s-.1 0-.1 0s-.1 0-.1 0s-.1 0-.1 0s-.1 0-.2 0c0 0-.1 0-.1 0s-.1 0-.1 0s-.1 0-.1 0s-.1 0-.1 0s-.1 0-.1 0s-.1 0-.1 0s-.1 0-.1 0s-.1 0-.1 0s-.1 0-.2 0c0 0-.1 0-.1 0s-.1 0-.1 0s-.1 0-.1 0s-.1 0-.1 0s-.1 0-.1 0s-.1 0-.1 0s-.1 0-.1 0s-.1 0-.1 0s-.1 0-.1 0s-.1 0-.2 0s-.1 0-.1 0s-.1 0-.1 0s-.1 0-.1 0s-.1 0-.1 0s-.1 0-.1 0s-.1 0-.1 0s-.1 0-.1 0s-.1 0-.1 0s-.1 0-.2 0s-.1 0-.1 0s-.1 0-.1 0s-.1 0-.1 0s-.1 0-.1 0s-.1 0-.1 0s-.1 0-.1 0s-.1 0-.1 0s-.1 0-.2 0s-.1 0-.1 0s-.1 0-.2 0c-26.3 0-50.4 14.3-63.1 37.3C103.2 125.5 81 165.8 58.9 206C51.7 219 48 233.6 48 248.4c0 47.9 0 95.7 0 143.6c0 4.4 3.6 8 8 8c10.7 0 21.3 0 32 0c4.4 0 8-3.6 8-8c0-47.9 0-95.7 0-143.6c0-6.7 1.7-13.4 5-19.3c20.7-37.6 41.3-75.2 62-112.8c5.3-9.6 16.4-14.4 27-11.7s18 12.3 18 23.2c0 53.4 0 106.8 0 160.2c-16 0-32 0-48 0c0-22.2 0-44.4 0-66.6c-5.3 9.7-10.7 19.4-16 29.1c0 47.2 0 94.3 0 141.5c0 30.9-25.1 56-56 56c-10.7 0-21.3 0-32 0c-30.9 0-56-25.1-56-56c0-47.9 0-95.7 0-143.6zM160 320l16 0 144 0 6.6 0c-4.1 14.3-6.3 29.4-6.6 44.9c-16.9 25.3-33.8 50.7-50.7 76c-4.9 7.4-14.8 9.3-22.2 4.4s-9.3-14.8-4.4-22.2c15.8-23.7 31.6-47.4 47.4-71.1c-38 0-76.1 0-114.1 0c-5.3 0-10.7 0-16 0c0-10.7 0-21.3 0-32zm0 64l48 0c0 21.3 0 42.7 0 64c0 8.8 7.2 16 16 16c41.5 0 83 0 124.5 0c12.3 18.8 28 35.1 46.3 48c-56.9 0-113.9 0-170.8 0c-35.3 0-64-28.7-64-64c0-21.3 0-42.7 0-64zM188.1 48l.1 0 .1 0 .1 0c-.2 0-.1 0-.3 0zm3 0c0 0 0 0 0 0zM352 368c0-79.5 64.5-144 144-144s144 64.5 144 144s-64.5 144-144 144s-144-64.5-144-144zm64 0c0 8.8 7.2 16 16 16c42.7 0 85.3 0 128 0c8.8 0 16-7.2 16-16s-7.2-16-16-16c-42.7 0-85.3 0-128 0c-8.8 0-16 7.2-16 16zm16-240c0-11 7.4-20.5 18-23.2s21.7 2.1 27 11.7c14.1 25.7 28.2 51.4 42.3 77c-7.6-1-15.4-1.5-23.3-1.5c-22.6 0-44.2 4.3-64 12c0-25.3 0-50.7 0-76z"/></svg>