<svg width="25" height="25" fill="black" viewBox="0 0 700 649" fill="black" xmlns="http://www.w3.org/2000/svg">
<rect width="700" height="649" fill="#F5F5F5"/>
<g filter="url(#filter0_dd_0_1)">
<path d="M270.423 192.625C254.59 192.625 240.081 201.451 232.435 215.646L192.46 290.141C188.125 298.164 185.898 307.175 185.898 316.309V404.938C185.898 407.653 188.065 409.875 190.714 409.875H209.979C212.628 409.875 214.795 407.653 214.795 404.938V316.309C214.795 312.174 215.819 308.039 217.805 304.398L255.131 234.779C258.322 228.854 265.005 225.891 271.386 227.558C277.768 229.224 282.223 235.149 282.223 241.877V340.75H253.325V299.645L243.693 317.605V404.938C243.693 424.009 228.582 439.5 209.979 439.5H190.714C172.111 439.5 157 424.009 157 404.938V316.309C157 302.176 160.492 288.227 167.114 275.884L207.089 201.389C219.792 177.689 244.054 163 270.423 163H270.483H270.543H270.604H270.664H270.724H270.784H270.844H270.905H270.965H271.025H271.085H271.145H271.206H271.266H271.326H271.386H271.446H271.507H271.567H271.627H271.687H271.747H271.808H271.868H271.928H271.988H272.048H272.109H272.169H272.229H272.289H272.349H272.41H272.47H272.53H272.59H272.651H272.711H272.771H272.831H272.891H272.952H273.012H273.072H273.132H273.192H273.253H273.313H273.373H273.433H273.493H273.554H273.614H273.674H273.734H273.794H273.855H273.915H273.975H274.035H274.095H274.156H274.216H274.276H274.336H274.396H274.457H274.517H274.577H274.637H274.697H274.758H274.818H274.878H274.938H274.998H275.059H275.119H275.179H275.239H275.299H275.36H275.42H275.48H275.54H275.6H275.661H275.721H275.781H275.841H275.901H275.962H276.022H276.082H276.142H276.203H276.263H276.323H276.383H276.443H276.504H276.564H276.624H276.684H276.744H276.805H276.865H276.925H276.985H277.045H277.106H277.166H277.226H277.286H277.346H277.407H277.467H277.527H277.587H277.647H277.708H277.768H277.828H277.888H277.948H278.009H278.069H278.129H278.189H278.249H278.31H278.37H278.43H278.49H278.55H278.611H278.671H278.731H278.791H278.851H278.912H278.972H279.032H279.092H279.152H279.213H279.273H279.333H279.393H279.453H279.514H279.574H279.634H279.694H279.754H279.815H279.875H279.935H279.995H280.056H280.116H280.176H280.236H280.296H280.357H280.417H280.477H280.537H280.597H280.658H280.718H280.778H280.838H280.898H280.959H281.019H281.079H281.139H281.199H281.26H281.32H281.38H281.44H281.5H281.561H281.621H281.681H281.741H281.801H281.862H281.922H281.982H282.042H282.102H282.163H282.223H282.283H282.343H282.403H282.464H282.524H282.584H282.644H282.704H282.765H282.825H282.885H282.945H283.005H283.066H283.126H283.186H283.246H283.306H283.367H283.427H283.487H283.547H283.608H283.668H283.728H283.788H283.848H283.909H283.969H284.029H284.089H284.149H284.21H284.27H284.33H284.39H284.45H284.511H284.571H284.631H284.691H284.751H284.812H284.872H284.932H284.992H285.052H285.113H285.173H285.233H285.293H285.353H285.414H285.474H285.534H285.594H285.654H285.715H285.775H285.835H285.895H285.955H286.016H286.076H286.136H286.196H286.256H286.317H286.377H286.437H286.497H286.557H286.618H286.678H286.738H286.798H286.858H286.919H286.979H287.039H287.099H287.159H287.22H287.28H287.34H287.4H287.461H287.521H287.581H287.641H287.701H287.762H287.822H287.882H287.942H288.002H288.063H288.123H288.183H288.243H288.303H288.364H288.424H288.484H288.544H288.604H288.665H288.725H288.785H288.845H288.905H288.966H289.026H289.086H289.146H289.206H289.267H289.327H289.387H289.447H289.507H289.568H289.628H289.688H289.748H289.808H289.869H289.929H289.989H290.049H290.109H290.17H290.23H290.29H290.35H290.41H290.471H290.531H290.591H290.651H290.711H290.772H290.832H290.892H290.952H291.013H291.073H291.133H291.193H291.253H291.314H291.374H291.434H291.494H291.554H291.615H291.675H291.735H291.795H291.855H291.916H291.976H292.036H292.096H292.156H292.217H292.277H292.337H292.397H292.457H292.518H292.578H292.638H292.698H292.758H292.819H292.879H292.939H292.999H293.059H293.12H293.18H293.24H293.3H293.36H293.421H293.481H293.541H293.601H293.661H293.722H293.782H293.842H293.902H293.962H294.023H294.083H294.143H294.203H294.263H294.324H294.384H294.444H294.504H294.565H294.625H294.685H294.745H294.805H294.866H294.926H294.986H295.046H295.106H295.167H295.227H295.287H295.347H295.407H295.468H295.528H295.588H295.648H295.708H295.769H295.829H295.889H295.949H296.009H296.07H296.13H296.19H296.25H296.31H296.371H296.431H296.491H296.551H296.611H296.672H296.732H296.792H296.852H296.912H296.973H297.033H297.093H297.153H297.213H297.274H297.334H297.394H297.454H297.514H297.575H297.635H297.695H297.755H297.815H297.876H297.936H297.996H298.056H298.116H298.177H298.237H298.297H298.357H298.418H298.478H298.538H298.598H298.658H298.719H298.779H298.839H298.899H298.959H299.02H299.08H299.14H299.2H299.26H299.321H299.381H299.441H299.501H299.561H299.622H299.682H299.742H299.802H299.862H299.923H299.983H300.043H300.103H300.163H300.224H300.284H300.344H300.404H300.464H300.525H300.585H300.645H300.705H300.765H300.826H300.886H300.946H301.006H301.066H301.127H301.187H301.247C306.665 163 311.602 166.086 314.07 171.023L349.651 241.445L384.99 171.023C387.458 166.086 392.395 163 397.813 163H397.873H397.934H397.994H398.054H398.114H398.174H398.235H398.295H398.355H398.415H398.475H398.536H398.596H398.656H398.716H398.776H398.837H398.897H398.957H399.017H399.077H399.138H399.198H399.258H399.318H399.378H399.439H399.499H399.559H399.619H399.679H399.74H399.8H399.86H399.92H399.98H400.041H400.101H400.161H400.221H400.281H400.342H400.402H400.462H400.522H400.582H400.643H400.703H400.763H400.823H400.884H400.944H401.004H401.064H401.124H401.185H401.245H401.305H401.365H401.425H401.486H401.546H401.606H401.666H401.726H401.787H401.847H401.907H401.967H402.027H402.088H402.148H402.208H402.268H402.328H402.389H402.449H402.509H402.569H402.629H402.69H402.75H402.81H402.87H402.93H402.991H403.051H403.111H403.171H403.231H403.292H403.352H403.412H403.472H403.532H403.593H403.653H403.713H403.773H403.833H403.894H403.954H404.014H404.074H404.134H404.195H404.255H404.315H404.375H404.435H404.496H404.556H404.616H404.676H404.737H404.797H404.857H404.917H404.977H405.038H405.098H405.158H405.218H405.278H405.339H405.399H405.459H405.519H405.579H405.64H405.7H405.76H405.82H405.88H405.941H406.001H406.061H406.121H406.181H406.242H406.302H406.362H406.422H406.482H406.543H406.603H406.663H406.723H406.783H406.844H406.904H406.964H407.024H407.084H407.145H407.205H407.265H407.325H407.385H407.446H407.506H407.566H407.626H407.686H407.747H407.807H407.867H407.927H407.987H408.048H408.108H408.168H408.228H408.289H408.349H408.409H408.469H408.529H408.59H408.65H408.71H408.77H408.83H408.891H408.951H409.011H409.071H409.131H409.192H409.252H409.312H409.372H409.432H409.493H409.553H409.613H409.673H409.733H409.794H409.854H409.914H409.974H410.034H410.095H410.155H410.215H410.275H410.335H410.396H410.456H410.516H410.576H410.636H410.697H410.757H410.817H410.877H410.937H410.998H411.058H411.118H411.178H411.238H411.299H411.359H411.419H411.479H411.539H411.6H411.66H411.72H411.78H411.84H411.901H411.961H412.021H412.081H412.142H412.202H412.262H412.322H412.382H412.443H412.503H412.563H412.623H412.683H412.744H412.804H412.864H412.924H412.984H413.045H413.105H413.165H413.225H413.285H413.346H413.406H413.466H413.526H413.586H413.647H413.707H413.767H413.827H413.887H413.948H414.008H414.068H414.128H414.188H414.249H414.309H414.369H414.429H414.489H414.55H414.61H414.67H414.73H414.79H414.851H414.911H414.971H415.031H415.091H415.152H415.212H415.272H415.332H415.393H415.453H415.513H415.573H415.633H415.694H415.754H415.814H415.874H415.934H415.995H416.055H416.115H416.175H416.235H416.296H416.356H416.416H416.476H416.536H416.597H416.657H416.717H416.777H416.837H416.898H416.958H417.018H417.078H417.138H417.199H417.259H417.319H417.379H417.439H417.5H417.56H417.62H417.68H417.74H417.801H417.861H417.921H417.981H418.041H418.102H418.162H418.222H418.282H418.342H418.403H418.463H418.523H418.583H418.643H418.704H418.764H418.824H418.884H418.944H419.005H419.065H419.125H419.185H419.246H419.306H419.366H419.426H419.486H419.547H419.607H419.667H419.727H419.787H419.848H419.908H419.968H420.028H420.088H420.149H420.209H420.269H420.329H420.389H420.45H420.51H420.57H420.63H420.69H420.751H420.811H420.871H420.931H420.991H421.052H421.112H421.172H421.232H421.292H421.353H421.413H421.473H421.533H421.593H421.654H421.714H421.774H421.834H421.894H421.955H422.015H422.075H422.135H422.195H422.256H422.316H422.376H422.436H422.496H422.557H422.617H422.677H422.737H422.797H422.858H422.918H422.978H423.038H423.099H423.159H423.219H423.279H423.339H423.4H423.46H423.52H423.58H423.64H423.701H423.761H423.821H423.881H423.941H424.002H424.062H424.122H424.182H424.242H424.303H424.363H424.423H424.483H424.543H424.604H424.664H424.724H424.784H424.844H424.905H424.965H425.025H425.085H425.145H425.206H425.266H425.326H425.386H425.446H425.507H425.567H425.627H425.687H425.747H425.808H425.868H425.928H425.988H426.048H426.109H426.169H426.229H426.289H426.349H426.41H426.47H426.53H426.59H426.651H426.711H426.771H426.831H426.891H426.952H427.012H427.072H427.132H427.192H427.253H427.313H427.373H427.433H427.493H427.554H427.614H427.674H427.734H427.794H427.855H427.915H427.975H428.035H428.095H428.156H428.216H428.276H428.336H428.396H428.457H428.517H428.577H428.637C455.006 163 479.268 177.689 491.911 201.389L531.886 275.884C538.508 288.289 542 302.176 542 316.309V404.938C542 424.009 526.889 439.5 508.286 439.5H489.322C470.719 439.5 455.608 424.009 455.608 404.938V317.605L445.976 299.645V340.75H417.078V242C417.078 235.211 421.533 229.348 427.915 227.681C434.296 226.015 440.979 228.977 444.17 234.902L481.496 304.521C483.422 308.163 484.506 312.236 484.506 316.433V404.938C484.506 407.653 486.673 409.875 489.322 409.875H508.587C511.236 409.875 513.403 407.653 513.403 404.938V316.309C513.403 307.175 511.176 298.164 506.841 290.141L466.866 215.646C459.281 201.451 444.711 192.625 428.878 192.625H428.818H428.758H428.697H428.637H428.577H428.517H428.457H428.396H428.336H428.276H428.216H428.156H428.095H428.035H427.975H427.915H427.855H427.794H427.915H427.855H427.794H427.734H427.674H427.614H427.554H427.493H427.433H427.373H427.313H427.253H427.192H427.313H427.253H427.192H427.132H427.072H427.012H426.952H426.891H426.831H426.771H426.711H426.651H426.59H426.53H426.47H426.41H426.349H426.289H426.229H426.169H426.109H426.048H425.988H425.928H425.868H425.808H425.747H425.687H425.627H425.567H425.507H425.446H425.386H425.326H425.266H425.206H425.145H425.085H425.025H424.965H424.905H424.844H424.784H424.724H424.664H424.604H424.543H424.483H424.423H424.363H424.303H424.242H424.182H424.122H424.062H424.002H423.941H423.881H423.821H423.761H423.701H423.64H423.58H423.52H423.46H423.4H423.339H423.279H423.219H423.159H423.099H423.038H422.978H422.918H422.858H422.797H422.737H422.677H422.617H422.496H422.436H422.376H422.316H422.256H422.195H422.135H422.075H422.015H421.955H421.894H421.834H421.774H421.714H421.654H421.593H421.533H421.473H421.413H421.353H421.292H421.232H421.172H421.112H421.052H420.991H420.931H420.871H420.811H420.69H420.63H420.57H420.51H420.45H420.389H420.329H420.269H420.209H420.088H420.028H419.968H419.908H419.848H419.787H419.727H419.667H419.607H419.486H419.426H419.366H419.306H419.246H419.185H419.125H419.065H419.005H418.884H418.824H418.764H418.704H418.643H418.583H418.523H418.463H418.403H418.282H418.222H418.162H418.102H418.041H417.981H417.921H417.861H417.801H417.68H417.62H417.56H417.5H417.439H417.379H417.319H417.259H417.199H417.138H417.078H417.018H416.958H416.898H416.837H416.777H416.717H416.476H416.416H416.356H416.296H416.235H416.175H416.115H416.055H415.995H415.874H415.814H415.754H415.694H415.633H415.573H415.513H415.453H415.393H415.272H415.212H415.152H415.091H415.031H414.971H414.911H414.851H414.67H414.61H414.55H414.489H414.429H414.369H414.309H414.249H414.188H414.068H414.008H413.948H413.887H413.827H413.767H413.707H413.647H413.466H413.406H413.346H413.285H413.225H413.165H413.105H413.045H412.984H412.864H412.804H412.744H412.683H412.623H412.563H412.503H412.443H412.382H412.322H412.262H412.202H412.142H412.081H412.021H411.961H411.901H411.66H411.6H411.539H411.479H411.419H411.359H411.299H411.238H411.178H411.058H410.998H410.937H410.877H410.817H410.757H410.697H410.636H410.576H410.516H410.456H410.396H410.335H410.275H410.215H410.155H410.095H409.854H409.794H409.733H409.673H409.613H409.553H409.493H409.432H409.372H409.252H409.192H409.131H409.071H409.011H408.951H408.891H408.83H408.77H408.65H408.59H408.529H408.469H408.409H408.349H408.289H408.228H408.168H408.048H407.987H407.927H407.867H407.807H407.747H407.686H407.626H407.566H407.506H407.446H407.385H407.325H407.265H407.205H407.145H407.084H407.024H406.844H406.783H406.723H406.663L362.474 280.574L332.312 340.75H299.802L333.396 273.847L292.698 192.625H292.638H292.578H292.457H292.397H292.337H292.277H292.217H292.156H292.096H292.036H291.976H291.916H291.855H291.795H291.735H291.675H291.615H291.554H291.494H291.434H291.253H291.193H291.133H291.073H291.013H290.952H290.892H290.832H290.772H290.651H290.591H290.531H290.471H290.41H290.35H290.29H290.23H290.17H290.049H289.989H289.929H289.869H289.808H289.748H289.688H289.628H289.568H289.447H289.387H289.327H289.267H289.206H289.146H289.086H289.026H288.966H288.905H288.845H288.785H288.725H288.665H288.604H288.544H288.484H288.243H288.183H288.123H288.063H288.002H287.942H287.882H287.822H287.762H287.641H287.581H287.521H287.461H287.4H287.34H287.28H287.22H287.159H287.099H287.039H286.979H286.919H286.858H286.798H286.738H286.678H286.437H286.377H286.317H286.256H286.196H286.136H286.076H286.016H285.955H285.835H285.775H285.715H285.654H285.594H285.534H285.474H285.414H285.233H285.173H285.113H285.052H284.992H284.932H284.872H284.812H284.751H284.631H284.571H284.511H284.45H284.39H284.33H284.27H284.21H284.149H284.089H284.029H283.969H283.909H283.848H283.788H283.728H283.668H283.427H283.367H283.306H283.246H283.186H283.126H283.066H283.005H282.945H282.825H282.765H282.704H282.644H282.584H282.524H282.464H282.403H282.343H282.283H282.223H282.163H282.102H282.042H281.982H281.922H281.862H281.621H281.561H281.5H281.44H281.38H281.32H281.26H281.199H281.139H281.019H280.959H280.898H280.838H280.778H280.718H280.658H280.597H280.537H280.417H280.357H280.296H280.236H280.176H280.116H280.056H279.995H279.935H279.815H279.754H279.694H279.634H279.574H279.514H279.453H279.393H279.333H279.213H279.152H279.092H279.032H278.972H278.912H278.851H278.791H278.731H278.611H278.55H278.49H278.43H278.37H278.31H278.249H278.189H278.129H278.069H278.009H277.948H277.888H277.828H277.768H277.708H277.647H277.587H277.527H277.407H277.346H277.286H277.226H277.166H277.106H277.045H276.985H276.925H276.865H276.805H276.744H276.684H276.624H276.564H276.504H276.443H276.383H276.323H276.203H276.142H276.082H276.022H275.962H275.901H275.841H275.781H275.721H275.661H275.6H275.54H275.48H275.42H275.36H275.299H275.239H275.179H275.119H275.059H274.998H274.938H274.878H274.818H274.758H274.697H274.637H274.577H274.517H274.457H274.396H274.336H274.276H274.216H274.156H274.095H274.035H273.975H273.915H273.855H273.794H273.734H273.674H273.614H273.554H273.493H273.433H273.373H273.313H273.253H273.192H273.132H273.072H273.012H272.952H272.891H272.831H272.771H272.711H272.651H272.59H272.53H272.47H272.41H272.349H272.289H272.229H272.169H272.109H272.048H271.988H271.928H271.868H271.808H271.747H271.687H271.627H271.567H271.507H271.446H271.386H271.326H271.266H271.386H271.326H271.266H271.206H271.145H271.085H271.025H270.965H270.905H270.844H270.784H270.724H270.664H270.784H270.724H270.664H270.604H270.543H270.483H270.423H270.363H270.303H270.242H270.423ZM253.325 400H282.223V439.5C282.223 444.931 286.557 449.375 291.855 449.375H407.446C412.744 449.375 417.078 444.931 417.078 439.5V400H445.976V439.5C445.976 461.287 428.697 479 407.446 479H291.855C270.604 479 253.325 461.287 253.325 439.5V400ZM262.958 360.5H349.651H436.343H445.976V380.25H436.343H367.651L396.188 424.132C399.138 428.699 397.934 434.809 393.539 437.834C389.144 440.858 383.124 439.623 380.174 435.118L349.651 388.212L319.127 435.118C316.177 439.685 310.217 440.858 305.762 437.834C301.307 434.809 300.163 428.699 303.113 424.132L331.65 380.25H262.958H253.325V360.5H262.958Z" fill=""/>
</g>
<g filter="url(#filter1_dd_0_1)">
<path d="M524.487 524.694L129.56 158.873C91.5813 203.192 68.875 259.405 68.875 320.5C68.875 464.349 194.705 580.906 350 580.906C415.956 580.906 476.641 559.873 524.487 524.694ZM570.305 482.252C608.419 437.808 631.125 381.595 631.125 320.5C631.125 176.651 505.295 60.0938 350 60.0938C284.044 60.0938 223.359 81.1266 175.513 116.306L570.44 482.127L570.305 482.252ZM4 320.5C4 235.498 40.4535 153.978 105.341 93.8723C170.229 33.7669 258.235 0 350 0C441.765 0 529.771 33.7669 594.659 93.8723C659.547 153.978 696 235.498 696 320.5C696 405.502 659.547 487.022 594.659 547.128C529.771 607.233 441.765 641 350 641C258.235 641 170.229 607.233 105.341 547.128C40.4535 487.022 4 405.502 4 320.5Z" fill=""/>
</g>
<defs>
<filter id="filter0_dd_0_1" x="153" y="163" width="393" height="324" filterUnits="userSpaceOnUse" color-interpolation-filters="sRGB">
<feFlood flood-opacity="0" result="BackgroundImageFix"/>
<feColorMatrix in="SourceAlpha" type="matrix" values="0 0 0 0 0 0 0 0 0 0 0 0 0 0 0 0 0 0 127 0" result="hardAlpha"/>
<feOffset dy="4"/>
<feGaussianBlur stdDeviation="2"/>
<feComposite in2="hardAlpha" operator="out"/>
<feColorMatrix type="matrix" values="0 0 0 0 0 0 0 0 0 0 0 0 0 0 0 0 0 0 0.25 0"/>
<feBlend mode="normal" in2="BackgroundImageFix" result="effect1_dropShadow_0_1"/>
<feColorMatrix in="SourceAlpha" type="matrix" values="0 0 0 0 0 0 0 0 0 0 0 0 0 0 0 0 0 0 127 0" result="hardAlpha"/>
<feOffset dy="4"/>
<feGaussianBlur stdDeviation="2"/>
<feComposite in2="hardAlpha" operator="out"/>
<feColorMatrix type="matrix" values="0 0 0 0 0 0 0 0 0 0 0 0 0 0 0 0 0 0 0.25 0"/>
<feBlend mode="normal" in2="effect1_dropShadow_0_1" result="effect2_dropShadow_0_1"/>
<feBlend mode="normal" in="SourceGraphic" in2="effect2_dropShadow_0_1" result="shape"/>
</filter>
<filter id="filter1_dd_0_1" x="0" y="0" width="700" height="649" filterUnits="userSpaceOnUse" color-interpolation-filters="sRGB">
<feFlood flood-opacity="0" result="BackgroundImageFix"/>
<feColorMatrix in="SourceAlpha" type="matrix" values="0 0 0 0 0 0 0 0 0 0 0 0 0 0 0 0 0 0 127 0" result="hardAlpha"/>
<feOffset dy="4"/>
<feGaussianBlur stdDeviation="2"/>
<feComposite in2="hardAlpha" operator="out"/>
<feColorMatrix type="matrix" values="0 0 0 0 0 0 0 0 0 0 0 0 0 0 0 0 0 0 0.25 0"/>
<feBlend mode="normal" in2="BackgroundImageFix" result="effect1_dropShadow_0_1"/>
<feColorMatrix in="SourceAlpha" type="matrix" values="0 0 0 0 0 0 0 0 0 0 0 0 0 0 0 0 0 0 127 0" result="hardAlpha"/>
<feOffset dy="4"/>
<feGaussianBlur stdDeviation="2"/>
<feComposite in2="hardAlpha" operator="out"/>
<feColorMatrix type="matrix" values="0 0 0 0 0 0 0 0 0 0 0 0 0 0 0 0 0 0 0.25 0"/>
<feBlend mode="normal" in2="effect1_dropShadow_0_1" result="effect2_dropShadow_0_1"/>
<feBlend mode="normal" in="SourceGraphic" in2="effect2_dropShadow_0_1" result="shape"/>
</filter>
</defs>
</svg>
