<svg xmlns="http://www.w3.org/2000/svg" viewBox="0 0 640 512"><path d="M0 144L320 32c106.7 37.3 213.3 74.7 320 112c0 10.7 0 21.3 0 32c-26.7 9.3-53.4 18.7-80 28c-19.8-7.8-41.4-12-64-12c-65 0-121.8 35.3-152.3 87.7c-7.9 2.8-15.8 5.5-23.7 8.3c-64.1-22.4-128.1-44.9-192.2-67.3c66-25.9 132.1-51.9 198.1-77.8c5-2 9.9-3.9 14.9-5.9c-3.9-9.9-7.9-19.8-11.8-29.7c-5 2-9.9 3.9-14.9 5.9c-74.7 29.3-149.3 58.7-224 88c-2.9 1.1-5.8 2.3-8.7 3.4c-.5-.2-.9-.4-1.4-.6c0 47.6 0 95.2 0 142.8c15.4 25.1 27.8 68.4 0 133.2c-26.7-5.3-53.3-10.7-80-16c0 0 32.5-46.5 48-96.9c0-58.1 0-116.2 0-174.3C32 187.2 16 181.6 0 176c0-10.7 0-21.3 0-32zM128 408l15.6-147.8c55.3 19.4 110.6 38.7 165.9 58.1c3.5 1.2 7.1 2.5 10.6 3.7c2.2-.8 4.4-1.5 6.6-2.3C322.3 335 320 351.2 320 368c0 41.8 14.6 80.1 38.9 110.3c-12.6 1.1-25.6 1.7-38.9 1.7c-106 0-192-36.7-192-72zm224-40c0-79.5 64.5-144 144-144s144 64.5 144 144s-64.5 144-144 144s-144-64.5-144-144zm64-16l0 32c21.3 0 42.7 0 64 0c0 21.3 0 42.7 0 64c10.7 0 21.3 0 32 0c0-21.3 0-42.7 0-64c21.3 0 42.7 0 64 0c0-10.7 0-21.3 0-32l-64 0c0-21.3 0-42.7 0-64c-10.7 0-21.3 0-32 0c0 21.3 0 42.7 0 64c-21.3 0-42.7 0-64 0z"/></svg>