<svg xmlns="http://www.w3.org/2000/svg" viewBox="0 0 640 512"><path d="M0 224.4c0-18.9 4.8-37.4 13.9-54C36 130.2 58.2 89.9 80.3 49.7C95.9 21.2 124.9 2.8 157 .3c1-.2 2-.3 3-.3c1.5 0 2.9 0 4.4 0c5.2 0 10.4 0 15.6 0c9.3 0 18.7 0 28 0c3.2 0 6.4 0 9.6 0c12.3 0 23.5 7 28.8 18.1c20.4 42.2 40.7 84.5 61.1 126.7C289.3 192.5 271.2 240.3 253 288c-36.3 0-72.7 0-109 0c0-51.6 0-103.3 0-154.9c-15.3 27.9-30.7 55.7-46 83.6c-1.3 2.4-2 5-2 7.7c0 53.2 0 106.4 0 159.6c0 17.7-14.3 32-32 32c-10.7 0-21.3 0-32 0c-17.7 0-32-14.3-32-32c0-53.2 0-106.4 0-159.6zM144 320l120 0 56 0 6.6 0c-4.1 14.3-6.3 29.4-6.6 44.9c-16.9 25.3-33.8 50.7-50.7 76c-4.9 7.4-14.8 9.3-22.2 4.4s-9.3-14.8-4.4-22.2c15.8-23.7 31.6-47.4 47.4-71.1c-12.8 0-25.7 0-38.5 0c-35.9 0-71.7 0-107.6 0c0-10.7 0-21.3 0-32zm0 64l86.3 0c-4.7 7.1-9.5 14.3-14.2 21.4c-14.7 22.1-8.7 51.9 13.3 66.6s51.9 8.7 66.6-13.3c8-12.1 16-24.1 24-36.2c8 12 16.1 24.1 24.1 36.1c1.5 2.3 3.2 4.4 5 6.3c12.2 18.4 27.7 34.4 45.7 47.1c-62.3 0-124.5 0-186.8 0c-35.3 0-64-28.7-64-64c0-21.3 0-42.7 0-64zm143.2-96l52.7-138.3L389.1 20.6C393.8 8.2 405.7 0 419 0c4.3 0 8.7 0 13 0c9.3 0 18.7 0 28 0c5.2 0 10.4 0 15.6 0c1.5 0 2.9 0 4.4 0c1 0 2 .1 3 .3c32.1 2.5 61 20.9 76.7 49.5C581.8 90 604 130.3 626.1 170.5c9.1 16.5 13.9 35.1 13.9 54c0 53.2 0 106.3 0 159.6c0-5.4 0-10.7 0-16.1c0-33.7 0-67.5 0-101.2c-25.6-36.3-64.6-62.5-109.7-71.5c-11.4-20.8-22.8-41.6-34.3-62.3c0 19.7 0 39.3 0 59c-68.4 0-127.7 39-156.8 96c-17.3 0-34.7 0-52 0zM352 368c0-79.5 64.5-144 144-144s144 64.5 144 144s-64.5 144-144 144s-144-64.5-144-144zm64 0c0 8.8 7.2 16 16 16c42.7 0 85.3 0 128 0c8.8 0 16-7.2 16-16s-7.2-16-16-16c-42.7 0-85.3 0-128 0c-8.8 0-16 7.2-16 16z"/></svg>